<?xml version="1.0" encoding="UTF-8" standalone="no"?>
<svg
   xmlns:dc="http://purl.org/dc/elements/1.1/"
   xmlns:cc="http://creativecommons.org/ns#"
   xmlns:rdf="http://www.w3.org/1999/02/22-rdf-syntax-ns#"
   xmlns:svg="http://www.w3.org/2000/svg"
   xmlns="http://www.w3.org/2000/svg"
   viewBox="0 0 1280 720"
   height="720"
   width="1280"
   xml:space="preserve"
   id="svg2"
   version="1.1"><metadata
     id="metadata8"><rdf:RDF><cc:Work
         rdf:about=""><dc:format>image/svg+xml</dc:format><dc:type
           rdf:resource="http://purl.org/dc/dcmitype/StillImage" /></cc:Work></rdf:RDF></metadata><defs
     id="defs6"><clipPath
       id="clipPath18"
       clipPathUnits="userSpaceOnUse"><path
         style="clip-rule:evenodd"
         id="path16"
         d="M 0,1.2207e-4 H 960 V 540.00012 H 0 Z" /></clipPath><clipPath
       id="clipPath52"
       clipPathUnits="userSpaceOnUse"><path
         style="clip-rule:evenodd"
         id="path50"
         d="M 1.4305e-5,0 H 960.00001 V 540 H 1.4305e-5 Z" /></clipPath><clipPath
       id="clipPath64"
       clipPathUnits="userSpaceOnUse"><path
         style="clip-rule:evenodd"
         id="path62"
         d="M 1.4305e-5,0 H 960.00001 V 540 H 1.4305e-5 Z" /></clipPath><clipPath
       id="clipPath76"
       clipPathUnits="userSpaceOnUse"><path
         style="clip-rule:evenodd"
         id="path74"
         d="M 1.4305e-5,0 H 960.00001 V 540 H 1.4305e-5 Z" /></clipPath><clipPath
       id="clipPath88"
       clipPathUnits="userSpaceOnUse"><path
         style="clip-rule:evenodd"
         id="path86"
         d="M 1.4305e-5,0 H 960.00001 V 540 H 1.4305e-5 Z" /></clipPath><clipPath
       id="clipPath100"
       clipPathUnits="userSpaceOnUse"><path
         style="clip-rule:evenodd"
         id="path98"
         d="M 1.4305e-5,0 H 960.00001 V 540 H 1.4305e-5 Z" /></clipPath><clipPath
       id="clipPath112"
       clipPathUnits="userSpaceOnUse"><path
         style="clip-rule:evenodd"
         id="path110"
         d="M 1.4305e-5,0 H 960.00001 V 540 H 1.4305e-5 Z" /></clipPath><clipPath
       id="clipPath124"
       clipPathUnits="userSpaceOnUse"><path
         style="clip-rule:evenodd"
         id="path122"
         d="M 1.4305e-5,0 H 960.00001 V 540 H 1.4305e-5 Z" /></clipPath><clipPath
       id="clipPath136"
       clipPathUnits="userSpaceOnUse"><path
         style="clip-rule:evenodd"
         id="path134"
         d="M 1.4305e-5,0 H 960.00001 V 540 H 1.4305e-5 Z" /></clipPath><clipPath
       id="clipPath148"
       clipPathUnits="userSpaceOnUse"><path
         style="clip-rule:evenodd"
         id="path146"
         d="M 1.4305e-5,0 H 960.00001 V 540 H 1.4305e-5 Z" /></clipPath><clipPath
       id="clipPath160"
       clipPathUnits="userSpaceOnUse"><path
         style="clip-rule:evenodd"
         id="path158"
         d="M 1.4305e-5,0 H 960.00001 V 540 H 1.4305e-5 Z" /></clipPath><clipPath
       id="clipPath172"
       clipPathUnits="userSpaceOnUse"><path
         style="clip-rule:evenodd"
         id="path170"
         d="M 1.4305e-5,0 H 960.00001 V 540 H 1.4305e-5 Z" /></clipPath><clipPath
       id="clipPath184"
       clipPathUnits="userSpaceOnUse"><path
         style="clip-rule:evenodd"
         id="path182"
         d="M 1.4305e-5,0 H 960.00001 V 540 H 1.4305e-5 Z" /></clipPath><clipPath
       id="clipPath196"
       clipPathUnits="userSpaceOnUse"><path
         style="clip-rule:evenodd"
         id="path194"
         d="M 1.4305e-5,0 H 960.00001 V 540 H 1.4305e-5 Z" /></clipPath><clipPath
       id="clipPath208"
       clipPathUnits="userSpaceOnUse"><path
         style="clip-rule:evenodd"
         id="path206"
         d="M 1.4305e-5,0 H 960.00001 V 540 H 1.4305e-5 Z" /></clipPath><clipPath
       id="clipPath220"
       clipPathUnits="userSpaceOnUse"><path
         style="clip-rule:evenodd"
         id="path218"
         d="M 1.4305e-5,0 H 960.00001 V 540 H 1.4305e-5 Z" /></clipPath></defs><g
     transform="matrix(1.3333333,0,0,-1.3333333,0,720)"
     id="g10"><g
       id="g12"><g
         clip-path="url(#clipPath18)"
         id="g14"><path
           id="path20"
           style="fill:#ffffff;fill-opacity:1;fill-rule:evenodd;stroke:none"
           d="M 0,6.1035e-5 H 960 V 540.00006 H 0 Z" /></g></g><path
       id="path22"
       style="fill:#f8d8c1;fill-opacity:1;fill-rule:evenodd;stroke:none"
       d="m 4.44,279.96 c 0,83.84 68.527,151.8 153.06,151.8 84.53,0 153.06,-67.96 153.06,-151.8 0,-83.84 -68.53,-151.8 -153.06,-151.8 -84.533,0 -153.06,67.96 -153.06,151.8 z" /><path
       id="path24"
       style="fill:none;stroke:#ffffff;stroke-width:0.95999998;stroke-linecap:butt;stroke-linejoin:miter;stroke-miterlimit:10;stroke-dasharray:none;stroke-opacity:1"
       d="m 4.44,279.96 c 0,83.84 68.527,151.8 153.06,151.8 84.53,0 153.06,-67.96 153.06,-151.8 0,-83.84 -68.53,-151.8 -153.06,-151.8 -84.533,0 -153.06,67.96 -153.06,151.8 z" /><path
       id="path26"
       style="fill:#a1b8e1;fill-opacity:1;fill-rule:evenodd;stroke:none"
       d="m 326.88,279.96 c 0,83.84 68.55,151.8 153.12,151.8 84.57,0 153.12,-67.96 153.12,-151.8 0,-83.84 -68.55,-151.8 -153.12,-151.8 -84.57,0 -153.12,67.96 -153.12,151.8 z" /><path
       id="path28"
       style="fill:none;stroke:#ffffff;stroke-width:0.95999998;stroke-linecap:butt;stroke-linejoin:miter;stroke-miterlimit:10;stroke-dasharray:none;stroke-opacity:1"
       d="m 326.88,279.96 c 0,83.84 68.55,151.8 153.12,151.8 84.57,0 153.12,-67.96 153.12,-151.8 0,-83.84 -68.55,-151.8 -153.12,-151.8 -84.57,0 -153.12,67.96 -153.12,151.8 z" /><path
       id="path30"
       style="fill:#d4e8c5;fill-opacity:1;fill-rule:evenodd;stroke:none"
       d="m 649.44,279.96 c 0,83.84 68.53,151.8 153.06,151.8 84.53,0 153.06,-67.96 153.06,-151.8 0,-83.84 -68.53,-151.8 -153.06,-151.8 -84.53,0 -153.06,67.96 -153.06,151.8 z" /><path
       id="path32"
       style="fill:none;stroke:#ffffff;stroke-width:0.95999998;stroke-linecap:butt;stroke-linejoin:miter;stroke-miterlimit:10;stroke-dasharray:none;stroke-opacity:1"
       d="m 649.44,279.96 c 0,83.84 68.53,151.8 153.06,151.8 84.53,0 153.06,-67.96 153.06,-151.8 0,-83.84 -68.53,-151.8 -153.06,-151.8 -84.53,0 -153.06,67.96 -153.06,151.8 z" /><path
       id="path34"
       style="fill:none;stroke:#404040;stroke-width:4.55999994;stroke-linecap:butt;stroke-linejoin:miter;stroke-miterlimit:10;stroke-dasharray:none;stroke-opacity:1"
       d="m 273.96,346.46 c 0,-16.96 -52.17,-30.7 -116.52,-30.7 -64.352,0 -116.52,13.74 -116.52,30.7" /><path
       id="path36"
       style="fill:none;stroke:#404040;stroke-width:4.55999994;stroke-linecap:butt;stroke-linejoin:miter;stroke-miterlimit:10;stroke-dasharray:none;stroke-opacity:1"
       d="m 40.92,346.46 c 0,16.96 52.168,30.7 116.52,30.7 64.35,0 116.52,-13.74 116.52,-30.7 v -122.8 c 0,-16.96 -52.17,-30.7 -116.52,-30.7 -64.352,0 -116.52,13.74 -116.52,30.7 z" /><path
       id="path38"
       style="fill:none;stroke:#404040;stroke-width:4.55999994;stroke-linecap:butt;stroke-linejoin:miter;stroke-miterlimit:10;stroke-dasharray:none;stroke-opacity:1"
       d="m 596.52,346.46 c 0,-16.96 -52.17,-30.7 -116.52,-30.7 -64.35,0 -116.52,13.74 -116.52,30.7" /><path
       id="path40"
       style="fill:none;stroke:#404040;stroke-width:4.55999994;stroke-linecap:butt;stroke-linejoin:miter;stroke-miterlimit:10;stroke-dasharray:none;stroke-opacity:1"
       d="m 363.48,346.46 c 0,16.96 52.17,30.7 116.52,30.7 64.35,0 116.52,-13.74 116.52,-30.7 v -122.8 c 0,-16.96 -52.17,-30.7 -116.52,-30.7 -64.35,0 -116.52,13.74 -116.52,30.7 z" /><path
       id="path42"
       style="fill:none;stroke:#404040;stroke-width:4.55999994;stroke-linecap:butt;stroke-linejoin:miter;stroke-miterlimit:10;stroke-dasharray:none;stroke-opacity:1"
       d="m 919.08,346.46 c 0,-16.96 -52.17,-30.7 -116.52,-30.7 -64.35,0 -116.52,13.74 -116.52,30.7" /><path
       id="path44"
       style="fill:none;stroke:#404040;stroke-width:4.55999994;stroke-linecap:butt;stroke-linejoin:miter;stroke-miterlimit:10;stroke-dasharray:none;stroke-opacity:1"
       d="m 686.04,346.46 c 0,16.96 52.17,30.7 116.52,30.7 64.35,0 116.52,-13.74 116.52,-30.7 v -122.8 c 0,-16.96 -52.17,-30.7 -116.52,-30.7 -64.35,0 -116.52,13.74 -116.52,30.7 z" /><g
       id="g46"><g
         clip-path="url(#clipPath52)"
         id="g48"><text
           id="text56"
           style="font-variant:normal;font-weight:bold;font-size:20.04000092px;font-family:Calibri;-inkscape-font-specification:Calibri-Bold;writing-mode:lr-tb;fill:#404040;fill-opacity:1;fill-rule:nonzero;stroke:none"
           transform="matrix(1,0,0,-1,82.2,287.62)"><tspan
             id="tspan54"
             y="0"
             x="0 8.6372404 18.537001 27.715321 38.496841 54.78936 61.442638 71.3424 82.103882 92.183998 97.354317">Fagområde, </tspan></text>
</g></g><g
       id="g58"><g
         clip-path="url(#clipPath64)"
         id="g60"><text
           id="text68"
           style="font-variant:normal;font-weight:bold;font-size:20.04000092px;font-family:Calibri;-inkscape-font-specification:Calibri-Bold;writing-mode:lr-tb;fill:#404040;fill-opacity:1;fill-rule:nonzero;stroke:none"
           transform="matrix(1,0,0,-1,82.2,263.62)"><tspan
             id="tspan66"
             y="0"
             x="0 17.514959 27.01392 37.775398 48.576962 53.506802 63.00576 73.767242 83.847359 94.608841 102.68496 113.46648 129.759 136.41228 146.31204 157.07352">Myndighedsområde</tspan></text>
</g></g><g
       id="g70"><g
         clip-path="url(#clipPath76)"
         id="g72"><text
           id="text80"
           style="font-variant:normal;font-weight:bold;font-size:20.06399918px;font-family:Calibri;-inkscape-font-specification:Calibri-Bold;writing-mode:lr-tb;fill:#404040;fill-opacity:1;fill-rule:nonzero;stroke:none"
           transform="matrix(1,0,0,-1,82.2,239.62)"><tspan
             id="tspan78"
             y="0"
             x="0 5.3999882">It</tspan></text>
</g></g><g
       id="g82"><g
         clip-path="url(#clipPath88)"
         id="g84"><text
           id="text92"
           style="font-variant:normal;font-weight:bold;font-size:20.06399918px;font-family:Calibri;-inkscape-font-specification:Calibri-Bold;writing-mode:lr-tb;fill:#404040;fill-opacity:1;fill-rule:nonzero;stroke:none"
           transform="matrix(1,0,0,-1,94.56,239.62)"><tspan
             id="tspan90"
             y="0"
             x="0">-</tspan></text>
</g></g><g
       id="g94"><g
         clip-path="url(#clipPath100)"
         id="g96"><text
           id="text104"
           style="font-variant:normal;font-weight:bold;font-size:20.06399918px;font-family:Calibri;-inkscape-font-specification:Calibri-Bold;writing-mode:lr-tb;fill:#404040;fill-opacity:1;fill-rule:nonzero;stroke:none"
           transform="matrix(1,0,0,-1,100.68,239.62)"><tspan
             id="tspan102"
             y="0"
             x="0 7.6845121 17.054399 24.859297 31.580736 41.672928">system</tspan></text>
</g></g><g
       id="g106"><g
         clip-path="url(#clipPath112)"
         id="g108"><text
           id="text116"
           style="font-variant:normal;font-weight:bold;font-size:20.04000092px;font-family:Calibri;-inkscape-font-specification:Calibri-Bold;writing-mode:lr-tb;fill:#404040;fill-opacity:1;fill-rule:nonzero;stroke:none"
           transform="matrix(1,0,0,-1,409.15,287.62)"><tspan
             id="tspan114"
             y="0"
             x="0 8.6372404 18.537001 27.715321 38.496841 54.78936 61.442638 71.3424 82.103882 92.183998 97.354317">Fagområde, </tspan></text>
</g></g><g
       id="g118"><g
         clip-path="url(#clipPath124)"
         id="g120"><text
           id="text128"
           style="font-variant:normal;font-weight:bold;font-size:20.04000092px;font-family:Calibri;-inkscape-font-specification:Calibri-Bold;writing-mode:lr-tb;fill:#404040;fill-opacity:1;fill-rule:nonzero;stroke:none"
           transform="matrix(1,0,0,-1,409.15,263.62)"><tspan
             id="tspan126"
             y="0"
             x="0 17.514959 27.01392 37.775398 48.576962 53.506802 63.00576 73.767242 83.847359 94.608841 102.68496 113.46648 129.759 136.41228 146.31204 157.07352">Myndighedsområde</tspan></text>
</g></g><g
       id="g130"><g
         clip-path="url(#clipPath136)"
         id="g132"><text
           id="text140"
           style="font-variant:normal;font-weight:bold;font-size:20.06399918px;font-family:Calibri;-inkscape-font-specification:Calibri-Bold;writing-mode:lr-tb;fill:#404040;fill-opacity:1;fill-rule:nonzero;stroke:none"
           transform="matrix(1,0,0,-1,409.15,239.62)"><tspan
             id="tspan138"
             y="0"
             x="0 5.3999882">It</tspan></text>
</g></g><g
       id="g142"><g
         clip-path="url(#clipPath148)"
         id="g144"><text
           id="text152"
           style="font-variant:normal;font-weight:bold;font-size:20.06399918px;font-family:Calibri;-inkscape-font-specification:Calibri-Bold;writing-mode:lr-tb;fill:#404040;fill-opacity:1;fill-rule:nonzero;stroke:none"
           transform="matrix(1,0,0,-1,421.51,239.62)"><tspan
             id="tspan150"
             y="0"
             x="0">-</tspan></text>
</g></g><g
       id="g154"><g
         clip-path="url(#clipPath160)"
         id="g156"><text
           id="text164"
           style="font-variant:normal;font-weight:bold;font-size:20.06399918px;font-family:Calibri;-inkscape-font-specification:Calibri-Bold;writing-mode:lr-tb;fill:#404040;fill-opacity:1;fill-rule:nonzero;stroke:none"
           transform="matrix(1,0,0,-1,427.63,239.62)"><tspan
             id="tspan162"
             y="0"
             x="0 7.6845121 17.054399 24.859297 31.580736 41.672928">system</tspan></text>
</g></g><g
       id="g166"><g
         clip-path="url(#clipPath172)"
         id="g168"><text
           id="text176"
           style="font-variant:normal;font-weight:bold;font-size:20.04000092px;font-family:Calibri;-inkscape-font-specification:Calibri-Bold;writing-mode:lr-tb;fill:#404040;fill-opacity:1;fill-rule:nonzero;stroke:none"
           transform="matrix(1,0,0,-1,741.5,287.62)"><tspan
             id="tspan174"
             y="0"
             x="0 8.6372404 18.537001 27.715321 38.496841 54.78936 61.442638 71.3424 82.103882 92.183998 97.354317">Fagområde, </tspan></text>
</g></g><g
       id="g178"><g
         clip-path="url(#clipPath184)"
         id="g180"><text
           id="text188"
           style="font-variant:normal;font-weight:bold;font-size:20.04000092px;font-family:Calibri;-inkscape-font-specification:Calibri-Bold;writing-mode:lr-tb;fill:#404040;fill-opacity:1;fill-rule:nonzero;stroke:none"
           transform="matrix(1,0,0,-1,741.5,263.62)"><tspan
             id="tspan186"
             y="0"
             x="0 17.514959 27.01392 37.775398 48.576962 53.506802 63.00576 73.767242 83.847359 94.608841 102.68496 113.46648 129.759 136.41228 146.31204 157.07352">Myndighedsområde</tspan></text>
</g></g><g
       id="g190"><g
         clip-path="url(#clipPath196)"
         id="g192"><text
           id="text200"
           style="font-variant:normal;font-weight:bold;font-size:20.06399918px;font-family:Calibri;-inkscape-font-specification:Calibri-Bold;writing-mode:lr-tb;fill:#404040;fill-opacity:1;fill-rule:nonzero;stroke:none"
           transform="matrix(1,0,0,-1,741.5,239.62)"><tspan
             id="tspan198"
             y="0"
             x="0 5.3999882">It</tspan></text>
</g></g><g
       id="g202"><g
         clip-path="url(#clipPath208)"
         id="g204"><text
           id="text212"
           style="font-variant:normal;font-weight:bold;font-size:20.06399918px;font-family:Calibri;-inkscape-font-specification:Calibri-Bold;writing-mode:lr-tb;fill:#404040;fill-opacity:1;fill-rule:nonzero;stroke:none"
           transform="matrix(1,0,0,-1,753.86,239.62)"><tspan
             id="tspan210"
             y="0"
             x="0">-</tspan></text>
</g></g><g
       id="g214"><g
         clip-path="url(#clipPath220)"
         id="g216"><text
           id="text224"
           style="font-variant:normal;font-weight:bold;font-size:20.06399918px;font-family:Calibri;-inkscape-font-specification:Calibri-Bold;writing-mode:lr-tb;fill:#404040;fill-opacity:1;fill-rule:nonzero;stroke:none"
           transform="matrix(1,0,0,-1,759.98,239.62)"><tspan
             id="tspan222"
             y="0"
             x="0 7.6845121 17.054399 24.859297 31.580736 41.672928">system</tspan></text>
</g></g></g></svg>